<?xml version="1.0" standalone="no"?>
<!DOCTYPE svg PUBLIC "-//W3C//DTD SVG 20010904//EN"
 "http://www.w3.org/TR/2001/REC-SVG-20010904/DTD/svg10.dtd">
<svg version="1.0" xmlns="http://www.w3.org/2000/svg"
 width="512.000000pt" height="512.000000pt" viewBox="0 0 512.000000 512.000000"
 preserveAspectRatio="xMidYMid meet">

<g transform="translate(0.000000,512.000000) scale(0.100000,-0.100000)"
fill="#000000" stroke="none">
<path d="M2380 5114 c-19 -2 -78 -9 -130 -14 -721 -79 -1404 -500 -1820 -1123
-316 -473 -469 -1068 -420 -1627 78 -866 555 -1603 1319 -2035 256 -145 594
-254 921 -297 123 -16 497 -16 620 0 669 89 1246 408 1675 927 408 493 622
1184 565 1825 -78 866 -555 1603 -1319 2035 -253 143 -596 254 -911 295 -88
12 -438 21 -500 14z m485 -483 c234 -35 424 -95 635 -201 707 -355 1150 -1075
1150 -1870 0 -877 -541 -1657 -1361 -1963 -456 -171 -1002 -171 -1458 0 -820
306 -1361 1086 -1361 1963 0 795 443 1515 1150 1870 207 104 399 165 625 200
170 26 447 26 620 1z"/>
<path d="M1499 3766 c-118 -42 -181 -163 -149 -283 12 -44 47 -82 449 -485
l435 -438 -435 -437 c-402 -404 -437 -442 -449 -486 -47 -174 113 -334 287
-287 44 12 82 47 486 449 l437 435 438 -435 c403 -402 441 -437 485 -449 174
-47 334 113 287 287 -12 44 -47 82 -449 486 l-435 437 435 438 c402 403 437
441 449 485 47 174 -113 334 -287 287 -44 -12 -82 -47 -485 -449 l-438 -435
-437 435 c-373 371 -444 437 -479 447 -53 15 -99 15 -145 -2z"/>
</g>
</svg>
